<?xml version="1.0" encoding="utf-8"?>
<!-- Generator: Adobe Illustrator 24.3.0, SVG Export Plug-In . SVG Version: 6.00 Build 0)  -->
<svg version="1.1" id="Layer_1" xmlns="http://www.w3.org/2000/svg" xmlns:xlink="http://www.w3.org/1999/xlink" x="0px" y="0px"
	 viewBox="0 0 1500 1500" style="enable-background:new 0 0 1500 1500;" xml:space="preserve">
<style type="text/css">
	.st0{fill:#FFFFFF;}
</style>
<g>
	<path class="st0" d="M816.89,580.69L1006,724.18c20.73,15.73,20.73,46.91,0,62.64l-189.1,143.49
		c-18.59,14.1-45.29,0.85-45.29-22.49V603.17C771.6,579.84,798.31,566.58,816.89,580.69z"/>
	<path class="st0" d="M750,50c-316.47,0-476,313.4-476,700s156.02,700,476,700c317.04,0,476-313.4,476-700S1067.04,50,750,50z
		 M1033.08,822.51l-35.97,27.29c-25.43,19.3-41.39,48.55-43.92,80.37C932.5,1190.32,864.7,1380,750,1380
		c-141.17,0-210-282.06-210-630s70.38-630,210-630c116.33,0,184.41,195.09,204.04,460.91c2.37,32.05,18.37,61.54,43.97,80.97
		l35.07,26.61c21.14,16.04,33.27,40.47,33.27,67.01C1066.35,782.04,1054.22,806.46,1033.08,822.51z"/>
</g>
</svg>
