<?xml version="1.0" encoding="utf-8"?>
<!-- Generator: Adobe Illustrator 24.3.0, SVG Export Plug-In . SVG Version: 6.00 Build 0)  -->
<svg version="1.1" id="Layer_1" xmlns="http://www.w3.org/2000/svg" xmlns:xlink="http://www.w3.org/1999/xlink" x="0px" y="0px"
	 viewBox="0 0 4300 1500" style="enable-background:new 0 0 4300 1500;" xml:space="preserve">
<g>
	<path d="M3909.73,598.83l168.84,128.12c18.51,14.05,18.51,41.88,0,55.93l-168.84,128.12c-16.6,12.59-40.44,0.76-40.44-20.08V618.91
		C3869.29,598.07,3893.13,586.23,3909.73,598.83z"/>
	<path d="M3850,125c-282.57,0-425,279.82-425,625s139.3,625,425,625c283.07,0,425-279.82,425-625S4133.07,125,3850,125z
		 M4102.75,814.74l-32.12,24.37c-22.71,17.23-36.96,43.35-39.22,71.76c-18.47,232.27-79,401.63-181.42,401.63
		c-126.04,0-187.5-251.84-187.5-562.5s62.84-562.5,187.5-562.5c103.86,0,164.65,174.18,182.18,411.53
		c2.11,28.61,16.4,54.95,39.26,72.29l31.31,23.76c18.88,14.32,29.71,36.13,29.71,59.83
		C4132.45,778.61,4121.63,800.41,4102.75,814.74z"/>
</g>
<g>
	<path d="M25,690.33h300.67l99.8,388.8l97.19-388.8h237.17l-206.06,649.3H238.84L25,690.33z"/>
	<path d="M827.11,554.91C799.03,529.42,785,498.09,785,460.94s14.69-68.25,44.06-93.31c29.38-25.05,63.06-37.58,101.09-37.58
		c39.73,0,74.08,12.97,103.02,38.88c28.94,25.92,43.42,56.59,43.42,92.02c0,38.03-14.69,69.56-44.06,94.61
		c-29.38,25.06-63.5,37.58-102.38,37.58C889.53,593.13,855.19,580.39,827.11,554.91z M853.67,1280.02
		c-40.61-46.66-60.91-110.16-60.91-190.52V690.33h274.75v387.5c0,19.88,5.39,35.22,16.2,46.02c10.8,10.81,24.84,16.2,42.13,16.2
		s34.98-5.19,53.14-15.56l14.25,180.16c-19.02,14.69-43.86,25.92-74.53,33.7c-30.67,7.77-62.42,11.66-95.25,11.66
		C950.88,1350,894.28,1326.67,853.67,1280.02z"/>
	<path d="M1354.86,1303.34c-47.95-31.09-85.75-72.36-113.39-123.77c-27.66-51.41-41.47-106.06-41.47-163.95
		c0-61.34,14.47-117.72,43.41-169.13s67.83-91.8,116.64-121.17s100.86-44.08,156.17-44.08c50.11,0,92.66,10.38,127.66,31.11
		c34.98,20.75,63.28,54.02,84.89,99.8V485.56l273.45-40.17v894.23h-273.45v-120.53c-40.63,87.28-111.91,130.91-213.84,130.91
		C1456.17,1350,1402.81,1334.45,1354.86,1303.34z M1691.83,1106.34c24.63-25.91,36.94-56.16,36.94-90.72v-5.19
		c0-33.69-12.97-62.84-38.89-87.47s-55.73-36.94-89.42-36.94c-36.28,0-66.73,12.75-91.36,38.23
		c-24.63,25.48-36.94,55.94-36.94,91.36c0,36.3,12.73,66.97,38.22,92.02c25.48,25.06,55.52,37.58,90.08,37.58
		C1636.73,1145.22,1667.2,1132.27,1691.83,1106.34z"/>
	<path d="M2218.44,1306.58c-55.72-28.94-99.14-68.69-130.23-119.23c-31.11-50.53-46.66-107.78-46.66-171.72
		c0-65.66,15.97-123.98,47.94-174.95s75.16-90.28,129.59-117.94s114.92-41.48,181.45-41.48c63.94,0,118.58,14.05,163.94,42.13
		c45.36,28.09,79.27,66.11,101.73,114.06s33.7,101.73,33.7,161.34c0,15.56-0.88,26.78-2.59,33.69l-388.8,50.55
		c10.36,30.25,27.2,52.06,50.53,65.45s54,20.08,92.03,20.08c58.75,0,122.25-15.11,190.52-45.36l32.39,173.67
		c-80.36,35.44-168.48,53.14-264.38,53.14C2337.89,1350,2274.16,1335.53,2218.44,1306.58z M2499.03,919.72
		c-13.83-54.42-46.66-81.64-98.5-81.64c-31.11,0-55.73,11.67-73.88,35c-18.16,23.33-27.66,53.56-28.5,90.7L2499.03,919.72z"/>
	<path d="M2916.89,1306.58c-55.72-28.94-99.14-68.69-130.23-119.23c-31.11-50.53-46.66-107.78-46.66-171.72
		c0-65.66,15.97-123.98,47.94-174.95s75.16-90.28,129.59-117.94s114.92-41.48,181.45-41.48c63.94,0,118.58,14.05,163.94,42.13
		c45.36,28.09,79.27,66.11,101.73,114.06s33.7,101.73,33.7,161.34c0,15.56-0.88,26.78-2.59,33.69l-388.8,50.55
		c10.36,30.25,27.2,52.06,50.53,65.45s54,20.08,92.03,20.08c58.75,0,122.25-15.11,190.52-45.36l32.39,173.67
		c-80.36,35.44-168.48,53.14-264.38,53.14C3036.34,1350,2972.61,1335.53,2916.89,1306.58z M3197.48,919.72
		c-13.83-54.42-46.66-81.64-98.5-81.64c-31.11,0-55.73,11.67-73.88,35c-18.16,23.33-27.66,53.56-28.5,90.7L3197.48,919.72z"/>
</g>
</svg>
