<?xml version="1.0" encoding="UTF-8"?>
<svg xmlns="http://www.w3.org/2000/svg" xmlns:xlink="http://www.w3.org/1999/xlink" width="2441.584pt" height="2491.4122pt" viewBox="0 0 2441.584 2491.4122" version="1.1">
<g id="surface1">
<path style=" stroke:none;fill-rule:nonzero;fill:rgb(25.882353%,52.156863%,95.686275%);fill-opacity:1;" d="M 2441.582031 1273.386719 C 2441.582031 1170.964844 2433.273438 1096.222656 2415.285156 1018.710938 L 1245.707031 1018.710938 L 1245.707031 1481 L 1932.222656 1481 C 1918.386719 1595.886719 1843.644531 1768.902344 1677.546875 1885.164062 L 1675.21875 1900.640625 L 2045.019531 2187.117188 L 2070.640625 2189.675781 C 2305.933594 1972.367188 2441.582031 1652.632812 2441.582031 1273.386719 "/>
<path style=" stroke:none;fill-rule:nonzero;fill:rgb(20.392157%,65.882353%,32.54902%);fill-opacity:1;" d="M 1245.707031 2491.414062 C 1582.042969 2491.414062 1864.398438 2380.675781 2070.640625 2189.675781 L 1677.546875 1885.164062 C 1572.355469 1958.519531 1431.171875 2009.734375 1245.707031 2009.734375 C 916.289062 2009.734375 636.699219 1792.433594 537.03125 1492.082031 L 522.421875 1493.320312 L 137.902344 1790.90625 L 132.871094 1804.886719 C 337.71875 2211.8125 758.492188 2491.414062 1245.707031 2491.414062 "/>
<path style=" stroke:none;fill-rule:nonzero;fill:rgb(98.431373%,73.72549%,1.960784%);fill-opacity:1;" d="M 537.03125 1492.082031 C 510.734375 1414.570312 495.515625 1331.515625 495.515625 1245.707031 C 495.515625 1159.886719 510.734375 1076.839844 535.648438 999.332031 L 534.953125 982.824219 L 145.609375 680.457031 L 132.871094 686.515625 C 48.445312 855.382812 0 1045.007812 0 1245.707031 C 0 1446.402344 48.445312 1636.019531 132.871094 1804.886719 L 537.03125 1492.082031 "/>
<path style=" stroke:none;fill-rule:nonzero;fill:rgb(92.156863%,26.27451%,20.784314%);fill-opacity:1;" d="M 1245.707031 481.667969 C 1479.617188 481.667969 1637.40625 582.710938 1727.375 667.148438 L 2078.941406 323.882812 C 1863.023438 123.1875 1582.042969 0 1245.707031 0 C 758.492188 0 337.71875 279.589844 132.871094 686.515625 L 535.648438 999.332031 C 636.699219 698.980469 916.289062 481.667969 1245.707031 481.667969 "/>
</g>
</svg>
